<svg version="1.0" xmlns="http://www.w3.org/2000/svg"
 width="4955.000000pt" height="3626.000000pt" viewBox="0 0 4955.000000 3626.000000"
 preserveAspectRatio="xMidYMid meet">

<g transform="translate(0.000000,3626.000000) scale(0.100000,-0.100000)"
fill="#000000" stroke="none">
<path d="M24280 32827 c-3 -3 -79 -7 -170 -11 -91 -3 -199 -8 -240 -11 -184
-12 -320 -22 -396 -30 -27 -2 -76 -7 -109 -10 -33 -3 -82 -8 -110 -11 -27 -2
-72 -7 -100 -10 -27 -3 -68 -7 -90 -10 -22 -3 -58 -7 -80 -10 -22 -2 -56 -6
-75 -9 -19 -3 -52 -7 -74 -10 -40 -5 -102 -13 -146 -20 -14 -2 -45 -7 -70 -10
-83 -11 -169 -24 -205 -31 -10 -2 -35 -6 -55 -9 -20 -3 -47 -8 -60 -10 -14 -3
-52 -10 -85 -15 -99 -16 -118 -20 -165 -30 -25 -5 -63 -12 -85 -15 -22 -3 -92
-17 -155 -31 -63 -13 -149 -32 -190 -40 -41 -9 -185 -43 -320 -75 -2102 -507
-4131 -1513 -5785 -2868 -434 -356 -720 -616 -1136 -1031 -524 -523 -944
-1005 -1366 -1565 -1681 -2233 -2690 -4903 -2902 -7680 -36 -468 -44 -726 -38
-1318 5 -549 15 -770 52 -1182 275 -3015 1467 -5856 3430 -8170 341 -403 955
-1037 1335 -1381 1041 -942 2087 -1658 3320 -2273 1195 -596 2405 -1011 3670
-1260 113 -22 228 -45 255 -51 28 -5 79 -14 115 -20 36 -5 76 -12 90 -14 73
-13 150 -26 190 -31 25 -3 56 -8 70 -10 14 -2 45 -7 70 -10 25 -3 56 -8 70
-10 14 -2 44 -6 68 -9 23 -3 59 -8 81 -11 54 -8 97 -13 161 -20 30 -3 71 -8
90 -10 19 -2 62 -7 95 -10 33 -3 76 -8 95 -10 19 -2 67 -7 105 -10 39 -3 91
-8 116 -10 70 -7 305 -23 434 -30 466 -26 1129 -26 1575 0 191 11 346 22 445
30 142 13 172 16 215 20 89 9 156 16 190 20 19 2 60 7 90 10 64 7 107 12 161
20 22 3 58 8 82 11 23 3 53 7 67 9 14 2 45 7 70 10 25 3 56 8 70 10 14 2 45 7
70 10 40 5 117 18 190 31 14 2 54 9 90 14 36 6 88 15 115 20 28 6 142 29 255
51 1242 244 2462 661 3630 1240 1244 616 2316 1348 3360 2293 381 344 994 979
1335 1381 1775 2092 2935 4647 3329 7330 108 739 146 1234 153 2022 6 592 -2
850 -38 1318 -236 3091 -1464 6052 -3483 8402 -470 547 -1031 1111 -1576 1584
-1751 1519 -3877 2614 -6130 3158 -135 32 -279 66 -320 75 -41 8 -127 27 -190
40 -63 14 -135 28 -160 31 -25 3 -61 10 -80 15 -19 5 -48 11 -65 13 -57 9
-160 27 -185 32 -13 2 -40 7 -60 10 -20 3 -45 7 -55 9 -36 7 -122 20 -205 31
-25 3 -56 8 -70 10 -44 7 -106 15 -146 20 -22 3 -55 7 -74 10 -19 3 -53 7 -75
9 -22 3 -58 7 -80 10 -22 3 -62 7 -90 10 -27 3 -72 8 -100 10 -27 3 -77 8
-110 11 -33 3 -82 8 -109 10 -85 8 -266 22 -396 30 -47 2 -128 8 -180 11 -113
8 -1213 18 -1220 11z m931 -842 c199 -6 261 -9 454 -20 216 -13 517 -40 690
-61 22 -2 60 -7 85 -10 25 -2 62 -7 82 -10 21 -3 50 -6 65 -8 15 -2 52 -7 82
-11 30 -4 62 -8 71 -10 9 -2 41 -6 70 -10 29 -4 62 -9 74 -11 11 -2 38 -6 61
-9 40 -6 243 -41 320 -55 22 -4 81 -15 130 -24 50 -8 131 -25 180 -35 50 -11
142 -32 205 -45 805 -177 1639 -444 2416 -776 1367 -584 2690 -1422 3759
-2379 532 -477 1029 -988 1446 -1486 1022 -1222 1808 -2565 2366 -4044 985
-2612 1148 -5509 464 -8237 -663 -2643 -2119 -5066 -4146 -6900 -246 -223
-291 -262 -451 -395 -1689 -1408 -3737 -2414 -5859 -2879 -88 -20 -405 -85
-455 -93 -24 -5 -81 -15 -125 -23 -51 -10 -194 -34 -230 -39 -23 -3 -50 -7
-61 -9 -12 -2 -45 -7 -74 -11 -29 -4 -60 -8 -69 -10 -9 -1 -38 -6 -66 -9 -27
-4 -61 -9 -75 -11 -14 -2 -45 -6 -70 -9 -76 -9 -133 -16 -170 -21 -19 -3 -61
-7 -92 -10 -32 -3 -74 -7 -95 -10 -67 -7 -176 -17 -343 -30 -153 -12 -177 -13
-505 -30 -104 -5 -1036 -5 -1140 0 -326 17 -377 20 -510 30 -33 3 -89 7 -125
10 -36 3 -87 8 -115 10 -27 3 -70 7 -95 10 -103 10 -157 16 -190 20 -37 5 -96
12 -170 21 -25 3 -56 7 -70 9 -14 2 -47 7 -75 11 -27 3 -57 8 -66 9 -9 2 -40
6 -69 10 -29 4 -62 9 -74 11 -11 2 -38 6 -61 9 -36 5 -179 29 -230 39 -44 8
-101 18 -125 23 -106 18 -432 87 -630 132 -1140 259 -2445 763 -3520 1360
-771 429 -1503 929 -2164 1480 -166 138 -201 169 -496 436 -344 311 -839 822
-1165 1202 -1912 2227 -3059 4960 -3304 7873 -36 424 -45 666 -45 1165 0 708
37 1258 130 1920 375 2691 1550 5229 3367 7275 445 500 1025 1062 1522 1475
1661 1378 3622 2354 5705 2840 63 15 167 37 230 50 64 13 122 26 130 29 8 3
69 15 135 27 66 12 138 25 160 29 80 15 281 49 320 55 23 3 50 7 61 9 12 2 45
7 74 11 29 4 61 8 70 10 9 2 41 6 71 10 30 4 67 9 82 11 15 2 44 5 65 8 20 3
57 8 82 10 25 3 63 8 85 10 174 22 474 48 690 61 192 11 255 14 459 21 116 3
212 7 213 8 3 3 464 -3 654 -9z"/>
<path d="M16294 25968 c177 -238 1071 -1435 1987 -2659 3639 -4868 4510 -6034
4510 -6042 1 -5 -646 -709 -1438 -1564 -4181 -4521 -5197 -5619 -5306 -5735
l-119 -128 778 0 779 1 3000 3244 c1650 1784 3003 3244 3006 3244 4 1 598
-790 1320 -1756 723 -967 1814 -2426 2425 -3243 l1110 -1485 2637 -3 2637 -2
-144 192 c-78 106 -979 1312 -2002 2680 -4231 5659 -5055 6763 -5056 6772 -1
5 723 792 1608 1748 1950 2109 4729 5115 4757 5146 l20 22 -774 0 -775 0
-2709 -2927 c-1490 -1611 -2737 -2957 -2770 -2992 l-61 -63 -1147 1533 c-631
844 -1636 2189 -2235 2989 l-1088 1455 -2637 3 -2636 2 323 -432z m6996 -4223
c1444 -1931 3725 -4982 5070 -6780 1344 -1799 2565 -3431 2712 -3628 l268
-357 -1207 2 -1207 3 -2566 3430 c-1411 1887 -3505 4688 -4655 6225 -1149
1537 -2397 3206 -2772 3708 l-683 912 1208 -2 1207 -3 2625 -3510z"/>
</g>
</svg>
